<?xml version="1.0" encoding="UTF-8"?>
<!-- Generator: visioncortex VTracer -->
<svg id="svg" version="1.1" xmlns="http://www.w3.org/2000/svg" style="display: block;" viewBox="0 0 128 128"><path d="M0 0 C4.70229338 2.17698768 7.48069117 5.49168809 10.60546875 9.51171875 C13.46967475 12.56847641 17.08179024 12.11964474 21.01367188 12.24804688 C22.5342287 12.29067931 24.05514489 12.32211145 25.57617188 12.34179688 C30.80034607 12.53902206 33.90958982 13.47622673 38 17 C42.67954246 22.42826926 42.52402634 26.94300434 42.48828125 33.72265625 C42.5910154 38.94341884 43.56899882 41.8364007 47 46 C48.78522979 47.75497249 48.78522979 47.75497249 50.625 49.125 C54.14777652 51.84784474 55.75376463 54.10456028 56.3359375 58.5859375 C56.42037565 64.61482119 56.22106257 68.34600793 52 73 C50.23356083 74.56186269 48.45164418 76.06575974 46.5859375 77.5078125 C43.4552602 80.45342513 43.03005333 82.57152537 42.7265625 86.8984375 C42.66294054 89.14111175 42.62495502 91.3814774 42.609375 93.625 C42.44343226 98.84297719 41.44801519 101.8574206 38 106 C32.50526351 110.86974276 26.13831339 110.09055085 19.21484375 109.8984375 C14.99297495 110.03181367 13.01304831 111.06420934 10 114 C8.32932867 115.99665598 6.66247014 117.99651034 5 120 C1.08591586 123.06779567 -3.05407546 124.15073294 -8 124 C-13.326295 122.37502865 -16.25648309 120.03147975 -20 116 C-25.40594658 111.18574906 -27.8703236 109.92023887 -35.1875 110.1875 C-41.30852969 110.28172544 -45.23161758 110.02663405 -50 106 C-54.57676407 100.4145138 -54.52441803 96.13128604 -54.48828125 89.27734375 C-54.5910154 84.05658116 -55.56899882 81.1635993 -59 77 C-60.78522979 75.24502751 -60.78522979 75.24502751 -62.625 73.875 C-66.14777652 71.15215526 -67.75376463 68.89543972 -68.3359375 64.4140625 C-68.42037565 58.38517881 -68.22106257 54.65399207 -64 50 C-62.23356083 48.43813731 -60.45164418 46.93424026 -58.5859375 45.4921875 C-55.4552602 42.54657487 -55.03005333 40.42847463 -54.7265625 36.1015625 C-54.66294054 33.85888825 -54.62495502 31.6185226 -54.609375 29.375 C-54.4433701 24.15506813 -53.52412046 21.08986556 -50 17 C-45.20850345 12.87035045 -41.48278969 12.44277973 -35.4375 12.4375 C-28.24910173 12.40530207 -28.24910173 12.40530207 -22 9 C-21.175 8.01 -20.35 7.02 -19.5 6 C-13.96316085 -0.64420698 -8.24143139 -0.9867292 0 0 Z " transform="translate(70,2)" style="fill: #7A5A20;"/><path d="M0 0 C3.42320808 2.55062563 5.31101405 4.54384118 7.1875 8.375 C7.3125 10.9375 7.3125 10.9375 6.1875 13.375 C4.30145459 15.31432353 2.3931419 16.76671945 0.1875 18.375 C-0.1425 18.375 -0.4725 18.375 -0.8125 18.375 C-1.26822917 16.35677083 -1.72395833 14.33854167 -2.1796875 12.3203125 C-2.71724428 10.16780036 -2.71724428 10.16780036 -4.8125 8.375 C-8.7177713 7.45944884 -12.34986342 7.49515478 -15.83203125 9.58984375 C-17.94784983 11.42125495 -19.87492032 13.35550059 -21.8125 15.375 C-22.699375 16.23996094 -23.58625 17.10492188 -24.5 17.99609375 C-30.77119256 23.57490283 -30.77119256 23.57490283 -33.125 31.1875 C-33.06371114 34.25194319 -32.75789361 35.48193751 -31.3125 38.3125 C-27.93241836 41.10106735 -25.14876762 41.64547142 -20.8125 41.375 C-17.8216148 40.25341805 -16.16917601 38.78400996 -14.08203125 36.390625 C-8.92603489 30.58626981 -8.92603489 30.58626981 -5.07421875 29.85546875 C-2.60550156 29.87292785 -0.2534008 30.01486709 2.1875 30.375 C0.7462109 35.13828471 -2.08620018 38.1000092 -5.5625 41.5 C-6.07554688 42.02464844 -6.58859375 42.54929688 -7.1171875 43.08984375 C-12.04581617 47.98132195 -16.60798938 50.80311497 -23.75 50.8125 C-29.38470845 50.64513242 -32.3965826 49.88970977 -36.8125 46.375 C-40.60411664 42.01909576 -42.92710772 38.07219156 -43.125 32.1875 C-43.16238281 31.47207031 -43.19976562 30.75664063 -43.23828125 30.01953125 C-41.91071602 21.77401145 -36.36471883 16.27935119 -30.625 10.625 C-29.90763672 9.88378906 -29.19027344 9.14257812 -28.45117188 8.37890625 C-20.84632263 0.79448185 -10.6725462 -5.41591897 0 0 Z " transform="translate(70.8125,49.625)" style="fill: #F7F0E2;"/><path d="M0 0 C4.5035575 3.86019214 8.22980502 7.99193906 8.9609375 14.01953125 C8.97382812 15.02371094 8.98671875 16.02789062 9 17.0625 C9.02835938 18.05894531 9.05671875 19.05539063 9.0859375 20.08203125 C7.96313733 27.79890358 2.58364477 32.76084894 -2.75 38 C-3.39710937 38.65871094 -4.04421875 39.31742188 -4.7109375 39.99609375 C-9.83400887 45.0881788 -14.35018965 48.67668849 -21.875 48.6875 C-27.88485398 48.51602319 -31.03043411 46.59456589 -35.25 42.375 C-36.80810253 39.43191745 -36.85373814 37.53277584 -36.375 34.25 C-34.625 31.875 -34.625 31.875 -32.375 30.25 C-31.055 30.25 -29.735 30.25 -28.375 30.25 C-28.1275 31.36375 -27.88 32.4775 -27.625 33.625 C-26.7349953 37.19725667 -26.7349953 37.19725667 -24.625 38.75 C-21.39335782 39.46814271 -19.59608325 39.18212211 -16.375 38.25 C-13.49424854 36.18407468 -11.05395794 33.76333416 -8.5625 31.25 C-7.88251953 30.61449219 -7.20253906 29.97898438 -6.50195312 29.32421875 C-2.32880467 25.17187363 -0.5638448 22.14197704 -0.22509766 16.22436523 C-0.45395781 13.21004594 -1.39718279 11.50061959 -3.375 9.25 C-7.08540352 6.99865579 -9.79006385 6.8915171 -14.01953125 7.4296875 C-16.98407249 8.4621148 -18.24523289 9.91017231 -20.3125 12.25 C-23.37760204 15.71759019 -25.23946125 16.83273631 -29.875 17.25 C-31.37456471 17.28613409 -32.87580559 17.29915392 -34.375 17.25 C-34.375 13.25 -34.375 13.25 -32.375 11 C-31.91738281 10.58492187 -31.45976563 10.16984375 -30.98828125 9.7421875 C-29.29177205 8.21330173 -29.29177205 8.21330173 -27.54296875 6.2578125 C-19.68915724 -2.20013836 -10.89946209 -5.65157293 0 0 Z " transform="translate(91.375,29.75)" style="fill: #F7F0E2;"/></svg>