<svg xmlns="http://www.w3.org/2000/svg" viewBox="0 0 600 600">
  <defs>
    <linearGradient id="floor" x1="0" y1="0" x2="0" y2="1">
      <stop offset="0%" stop-color="#f5f0e8"/>
      <stop offset="100%" stop-color="#ede5d8"/>
    </linearGradient>
  </defs>
  <!-- floor -->
  <rect width="600" height="600" fill="url(#floor)"/>
  <!-- title area -->
  <text x="300" y="44" text-anchor="middle" fill="#5a4a3a" font-size="18" font-weight="700" font-family="sans-serif">深圳联合办公评测</text>
  <!-- workspace 1 (top-left) -->
  <rect x="20" y="65" width="175" height="130" fill="#fff" rx="8" stroke="#e0d4c4" stroke-width="1.5"/>
  <rect x="20" y="65" width="175" height="28" fill="#4a7ae0" rx="8 8 0 0"/>
  <text x="107" y="84" text-anchor="middle" fill="#fff" font-size="12" font-weight="600" font-family="sans-serif">#1 WeWork 南山</text>
  <!-- desk row -->
  <rect x="30" y="102" width="155" height="16" fill="#f0ead8" rx="3"/>
  <rect x="30" y="122" width="155" height="16" fill="#f0ead8" rx="3"/>
  <rect x="30" y="142" width="155" height="16" fill="#f0ead8" rx="3"/>
  <!-- rating -->
  <text x="30" y="186" fill="#f0a030" font-size="16" font-family="sans-serif">★★★★☆</text>
  <!-- workspace 2 (top-right) -->
  <rect x="210" y="65" width="175" height="130" fill="#fff" rx="8" stroke="#e0d4c4" stroke-width="1.5"/>
  <rect x="210" y="65" width="175" height="28" fill="#44b87a" rx="8 8 0 0"/>
  <text x="297" y="84" text-anchor="middle" fill="#fff" font-size="12" font-weight="600" font-family="sans-serif">#2 氪空间</text>
  <rect x="220" y="102" width="155" height="16" fill="#f0ead8" rx="3"/>
  <rect x="220" y="122" width="155" height="16" fill="#f0ead8" rx="3"/>
  <rect x="220" y="142" width="155" height="16" fill="#f0ead8" rx="3"/>
  <text x="220" y="186" fill="#f0a030" font-size="16" font-family="sans-serif">★★★★★</text>
  <!-- workspace 3 (top-far-right) -->
  <rect x="400" y="65" width="175" height="130" fill="#fff" rx="8" stroke="#e0d4c4" stroke-width="1.5"/>
  <rect x="400" y="65" width="175" height="28" fill="#e05a80" rx="8 8 0 0"/>
  <text x="487" y="84" text-anchor="middle" fill="#fff" font-size="12" font-weight="600" font-family="sans-serif">#3 优客工场</text>
  <rect x="410" y="102" width="155" height="16" fill="#f0ead8" rx="3"/>
  <rect x="410" y="122" width="155" height="16" fill="#f0ead8" rx="3"/>
  <rect x="410" y="142" width="155" height="16" fill="#f0ead8" rx="3"/>
  <text x="410" y="186" fill="#f0a030" font-size="16" font-family="sans-serif">★★★☆☆</text>
  <!-- comparison table -->
  <rect x="20" y="215" width="560" height="30" fill="#4a7ae0" rx="6 6 0 0"/>
  <text x="110" y="235" text-anchor="middle" fill="#fff" font-size="12" font-weight="600" font-family="sans-serif">地点</text>
  <text x="230" y="235" text-anchor="middle" fill="#fff" font-size="12" font-weight="600" font-family="sans-serif">WiFi速度</text>
  <text x="350" y="235" text-anchor="middle" fill="#fff" font-size="12" font-weight="600" font-family="sans-serif">噪音</text>
  <text x="460" y="235" text-anchor="middle" fill="#fff" font-size="12" font-weight="600" font-family="sans-serif">日价格</text>
  <!-- rows -->
  <rect x="20" y="245" width="560" height="36" fill="#fff"/>
  <line x1="20" y1="281" x2="580" y2="281" stroke="#ece5d8" stroke-width="1"/>
  <text x="110" y="269" text-anchor="middle" fill="#3a3028" font-size="12" font-family="sans-serif">WeWork 南山</text>
  <text x="230" y="269" text-anchor="middle" fill="#44b87a" font-size="12" font-weight="600" font-family="sans-serif">120 Mbps</text>
  <text x="350" y="269" text-anchor="middle" fill="#f0a030" font-size="12" font-family="sans-serif">中等</text>
  <text x="460" y="269" text-anchor="middle" fill="#3a3028" font-size="12" font-family="sans-serif">¥198</text>
  <rect x="20" y="281" width="560" height="36" fill="#faf8f4"/>
  <line x1="20" y1="317" x2="580" y2="317" stroke="#ece5d8" stroke-width="1"/>
  <text x="110" y="305" text-anchor="middle" fill="#3a3028" font-size="12" font-family="sans-serif">氪空间 科技园</text>
  <text x="230" y="305" text-anchor="middle" fill="#44b87a" font-size="12" font-weight="600" font-family="sans-serif">200 Mbps</text>
  <text x="350" y="305" text-anchor="middle" fill="#44b87a" font-size="12" font-family="sans-serif">安静</text>
  <text x="460" y="305" text-anchor="middle" fill="#3a3028" font-size="12" font-family="sans-serif">¥158</text>
  <rect x="20" y="317" width="560" height="36" fill="#fff"/>
  <line x1="20" y1="353" x2="580" y2="353" stroke="#ece5d8" stroke-width="1"/>
  <text x="110" y="341" text-anchor="middle" fill="#3a3028" font-size="12" font-family="sans-serif">优客工场 福田</text>
  <text x="230" y="341" text-anchor="middle" fill="#f0a030" font-size="12" font-weight="600" font-family="sans-serif">80 Mbps</text>
  <text x="350" y="341" text-anchor="middle" fill="#e05a50" font-size="12" font-family="sans-serif">嘈杂</text>
  <text x="460" y="341" text-anchor="middle" fill="#3a3028" font-size="12" font-family="sans-serif">¥128</text>
  <rect x="20" y="353" width="560" height="36" fill="#faf8f4"/>
  <line x1="20" y1="389" x2="580" y2="389" stroke="#ece5d8" stroke-width="1"/>
  <text x="110" y="377" text-anchor="middle" fill="#3a3028" font-size="12" font-family="sans-serif">爱特创 罗湖</text>
  <text x="230" y="377" text-anchor="middle" fill="#44b87a" font-size="12" font-weight="600" font-family="sans-serif">150 Mbps</text>
  <text x="350" y="377" text-anchor="middle" fill="#44b87a" font-size="12" font-family="sans-serif">安静</text>
  <text x="460" y="377" text-anchor="middle" fill="#44b87a" font-size="12" font-family="sans-serif">¥88</text>
  <rect x="20" y="389" width="560" height="36" fill="#fff"/>
  <line x1="20" y1="425" x2="580" y2="425" stroke="#ece5d8" stroke-width="1"/>
  <text x="110" y="413" text-anchor="middle" fill="#3a3028" font-size="12" font-family="sans-serif">SOHO 3Q 宝安</text>
  <text x="230" y="413" text-anchor="middle" fill="#44b87a" font-size="12" font-weight="600" font-family="sans-serif">180 Mbps</text>
  <text x="350" y="413" text-anchor="middle" fill="#f0a030" font-size="12" font-family="sans-serif">中等</text>
  <text x="460" y="413" text-anchor="middle" fill="#3a3028" font-size="12" font-family="sans-serif">¥168</text>
  <rect x="20" y="425" width="560" height="36" fill="#faf8f4"/>
  <line x1="20" y1="461" x2="580" y2="461" stroke="#ece5d8" stroke-width="1"/>
  <text x="110" y="449" text-anchor="middle" fill="#3a3028" font-size="12" font-family="sans-serif">纳什空间 龙华</text>
  <text x="230" y="449" text-anchor="middle" fill="#44b87a" font-size="12" font-weight="600" font-family="sans-serif">250 Mbps</text>
  <text x="350" y="449" text-anchor="middle" fill="#44b87a" font-size="12" font-family="sans-serif">安静</text>
  <text x="460" y="449" text-anchor="middle" fill="#44b87a" font-size="12" font-family="sans-serif">¥99</text>
  <rect x="20" y="461" width="560" height="36" fill="#fff"/>
  <line x1="20" y1="497" x2="580" y2="497" stroke="#ece5d8" stroke-width="1"/>
  <text x="110" y="485" text-anchor="middle" fill="#3a3028" font-size="12" font-family="sans-serif">JIC 天使湾</text>
  <text x="230" y="485" text-anchor="middle" fill="#f0a030" font-size="12" font-weight="600" font-family="sans-serif">60 Mbps</text>
  <text x="350" y="485" text-anchor="middle" fill="#f0a030" font-size="12" font-family="sans-serif">中等</text>
  <text x="460" y="485" text-anchor="middle" fill="#3a3028" font-size="12" font-family="sans-serif">¥178</text>
  <rect x="20" y="497" width="560" height="36" fill="#faf8f4"/>
  <line x1="20" y1="533" x2="580" y2="533" stroke="#ece5d8" stroke-width="1"/>
  <text x="110" y="521" text-anchor="middle" fill="#3a3028" font-size="12" font-family="sans-serif">REMIT 前海</text>
  <text x="230" y="521" text-anchor="middle" fill="#44b87a" font-size="12" font-weight="600" font-family="sans-serif">300 Mbps</text>
  <text x="350" y="521" text-anchor="middle" fill="#44b87a" font-size="12" font-family="sans-serif">安静</text>
  <text x="460" y="521" text-anchor="middle" fill="#44b87a" font-size="12" font-family="sans-serif">¥138</text>
  <rect x="20" y="533" width="560" height="36" fill="#f0f8ff" rx="0 0 6 6"/>
  <line x1="20" y1="533" x2="580" y2="533" stroke="#ece5d8" stroke-width="1"/>
  <!-- winner badge -->
  <rect x="420" y="541" width="140" height="24" fill="#44b87a" rx="12"/>
  <text x="490" y="557" text-anchor="middle" fill="#fff" font-size="11" font-weight="700" font-family="sans-serif">🏆 综合最佳推荐</text>
  <text x="110" y="557" text-anchor="middle" fill="#3a3028" font-size="12" font-family="sans-serif">纳什空间（终） </text>
</svg>
